<?xml version="1.0" standalone="no"?>
<!DOCTYPE svg PUBLIC "-//W3C//DTD SVG 20010904//EN"
 "http://www.w3.org/TR/2001/REC-SVG-20010904/DTD/svg10.dtd">
<svg version="1.0" xmlns="http://www.w3.org/2000/svg"
 width="650.000000pt" height="650.000000pt" viewBox="0 0 650.000000 650.000000"
 preserveAspectRatio="xMidYMid meet">
<metadata>
Created by potrace 1.11, written by Peter Selinger 2001-2013
</metadata>
<g transform="translate(0.000000,650.000000) scale(0.100000,-0.100000)"
fill="#000000" stroke="none">
<path d="M1640 5422 c-7 -3 -10 -678 -10 -2001 l0 -1998 398 1 397 1 3 1998
c2 1594 0 1997 -10 1998 -41 3 -770 3 -778 1z"/>
<path d="M4087 5422 c-16 -3 -17 -139 -17 -2001 l0 -1998 400 0 400 0 0 1999
0 1998 -22 1 c-75 3 -747 3 -761 1z"/>
<path d="M3185 4609 c-103 -18 -176 -55 -249 -126 -219 -214 -161 -579 114
-718 265 -134 587 27 641 320 18 97 5 188 -40 280 -83 168 -288 275 -466 244z"/>
</g>
</svg>
